<svg width="390" height="87" viewBox="0 0 390 87" fill="none" xmlns="http://www.w3.org/2000/svg">
<path d="M130.359 59.6197C128.965 59.6197 127.821 59.3369 126.925 58.7713C126.029 58.1543 125.407 57.2544 125.059 56.0718C124.76 54.8378 124.686 53.2438 124.835 51.2899C125.034 49.336 125.457 47.0221 126.104 44.3483L129.612 29.7711C129.861 28.9484 130.209 28.3571 130.657 27.9972C131.155 27.5858 131.827 27.4059 132.673 27.4573C133.419 27.5087 133.892 27.7658 134.091 28.2286C134.34 28.6913 134.364 29.2827 134.165 30.0025L130.508 44.8111C129.911 47.2792 129.538 49.3103 129.388 50.9042C129.239 52.4468 129.339 53.6037 129.687 54.375C130.035 55.0949 130.607 55.4548 131.404 55.4548C132.2 55.4548 133.17 55.0177 134.315 54.1436C135.509 53.2695 136.753 52.1126 138.047 50.6729C139.39 49.2331 140.659 47.6649 141.854 45.968C143.048 44.2198 144.093 42.523 144.989 40.8776C145.884 39.1808 146.506 37.6639 146.855 36.327L144.69 46.7393C143.347 49.2074 141.854 51.4184 140.212 53.3723C138.569 55.2748 136.902 56.7917 135.21 57.9229C133.519 59.0541 131.901 59.6197 130.359 59.6197ZM131.478 87.0002C129.587 87.0002 127.696 86.4346 125.805 85.3034C123.914 84.2236 122.272 82.681 120.879 80.6757C120.282 79.853 120.058 79.1588 120.207 78.5932C120.356 78.0276 120.705 77.5391 121.252 77.1278C121.8 76.665 122.372 76.5622 122.969 76.8193C123.566 77.1278 124.039 77.5648 124.387 78.1305C125.482 79.4673 126.676 80.5214 127.97 81.2927C129.314 82.064 130.607 82.4496 131.851 82.4496C133.046 82.4496 134.041 82.0897 134.837 81.3698C135.683 80.65 136.28 79.5702 136.629 78.1305L148.422 29.7711C148.671 28.9484 149.019 28.3571 149.467 27.9972C149.965 27.5858 150.637 27.4059 151.483 27.4573C152.229 27.5087 152.702 27.7658 152.901 28.2286C153.15 28.6913 153.175 29.2827 152.976 30.0025L141.182 78.5161C140.535 81.1899 139.341 83.2723 137.599 84.7635C135.857 86.2546 133.817 87.0002 131.478 87.0002Z" fill="#FB9F36"/>
<path d="M113.181 59.5429C111.688 59.5429 110.494 59.0287 109.598 58.0003C108.752 56.9205 108.254 55.4037 108.105 53.4498C108.005 51.4444 108.279 49.0792 108.926 46.354L119.675 2.23671C119.924 1.41401 120.272 0.848406 120.72 0.539894C121.168 0.179965 121.814 0 122.66 0C123.407 0 123.88 0.257093 124.079 0.77128C124.327 1.23405 124.352 1.82536 124.153 2.54523L113.255 47.3566C112.708 49.8247 112.459 51.8044 112.509 53.2955C112.559 54.7352 112.932 55.4551 113.629 55.4551C114.126 55.4551 114.823 54.9409 115.719 53.9125C116.664 52.8842 117.833 51.393 119.227 49.4391C120.023 48.3593 120.62 47.588 121.018 47.1253C121.466 46.6625 121.989 46.4311 122.586 46.4311C123.133 46.4311 123.556 46.6368 123.855 47.0481C124.203 47.4081 124.377 47.8965 124.377 48.5136C124.377 49.0277 124.228 49.5419 123.929 50.0561C123.681 50.5189 123.108 51.3416 122.213 52.5242C120.471 54.8381 118.829 56.5863 117.286 57.7689C115.793 58.9516 114.425 59.5429 113.181 59.5429Z" fill="#FB9F36"/>
<path d="M87.2713 59.5437C85.3306 59.5437 83.7382 58.9009 82.4942 57.6155C81.2501 56.2786 80.4539 54.4275 80.1056 52.0623C79.7572 49.697 79.9563 46.9461 80.7027 43.8095C81.5487 40.4673 82.7181 37.5622 84.211 35.0941C85.7536 32.5746 87.545 30.6206 89.5853 29.2323C91.6255 27.7926 93.8151 27.0728 96.1539 27.0728C97.9951 27.0728 99.5128 27.6384 100.707 28.7696C101.951 29.9008 102.573 31.2891 102.573 32.9345C102.573 34.837 101.653 36.8166 99.8114 38.8734C98.02 40.9301 95.5567 42.884 92.4217 44.7351C89.3365 46.5347 85.8282 48.0773 81.897 49.3628L82.7927 44.3494C85.7287 43.4753 88.3412 42.4212 90.6303 41.1872C92.9193 39.9531 94.7357 38.642 96.0792 37.2537C97.4228 35.8654 98.0946 34.5285 98.0946 33.243C98.0946 32.6774 97.8209 32.2146 97.2735 31.8547C96.7262 31.4433 96.0295 31.2377 95.1835 31.2377C93.7902 31.2377 92.4466 31.8033 91.1528 32.9345C89.859 34.0657 88.6896 35.634 87.6445 37.6393C86.6493 39.6446 85.8282 41.9585 85.1813 44.5808C84.3354 48.1801 84.1861 50.9053 84.7335 52.7564C85.3306 54.5561 86.5 55.4559 88.2417 55.4559C89.9834 55.4559 91.949 54.5818 94.1385 52.8335C96.3778 51.0853 98.9654 48.4887 101.901 45.0436C102.3 44.5294 102.822 44.2723 103.469 44.2723C104.116 44.2209 104.688 44.4009 105.186 44.8122C105.634 45.1721 105.858 45.6606 105.858 46.2776C105.907 46.8433 105.733 47.4089 105.335 47.9745C102.1 51.8309 99.0152 54.736 96.0792 56.6899C93.1433 58.5924 90.2073 59.5437 87.2713 59.5437Z" fill="#FB9F36"/>
<path d="M65.1365 59.5433C64.5891 59.5433 64.1164 59.4147 63.7183 59.1576C63.3202 58.8491 63.0714 58.3864 62.9719 57.7693L59.8368 30.2346C59.7871 29.6176 59.9115 29.0006 60.2101 28.3835C60.5584 27.7665 61.2053 27.458 62.1508 27.458C62.6484 27.458 63.0963 27.6123 63.4944 27.9208C63.9422 28.1779 64.191 28.6921 64.2408 29.4633L66.6294 54.3757L65.1365 54.1443L78.0498 28.9234C78.2986 28.3578 78.5972 27.9722 78.9455 27.7665C79.3436 27.5608 79.7915 27.458 80.2891 27.458C80.8862 27.458 81.359 27.6123 81.7073 27.9208C82.1054 28.1779 82.3542 28.5378 82.4538 29.0006C82.603 29.4633 82.5533 29.9261 82.3045 30.3889L67.5251 58.0779C67.2763 58.592 66.9777 58.9777 66.6294 59.2348C66.3308 59.4405 65.8332 59.5433 65.1365 59.5433Z" fill="#FB9F36"/>
<path d="M41.3046 59.5437C38.3686 59.5437 36.2537 58.104 34.9599 55.2245C33.7158 52.3451 33.6412 48.5401 34.736 43.8095C35.5819 40.4673 36.7513 37.5622 38.2442 35.0941C39.7868 32.5746 41.5783 30.6206 43.6185 29.2323C45.6588 27.7926 47.8483 27.0728 50.1871 27.0728C53.1728 27.0728 55.2877 28.5125 56.5318 31.3919C57.8256 34.2714 57.9003 38.1021 56.7557 42.884C55.9595 46.1748 54.7901 49.08 53.2475 51.5995C51.7546 54.0676 49.9881 56.0215 47.9478 57.4612C45.9076 58.8495 43.6931 59.5437 41.3046 59.5437ZM42.2749 55.4559C44.4147 55.4559 46.3803 54.1961 48.1717 51.6766C50.0129 49.1571 51.4063 45.9434 52.3518 42.0356C53.1977 38.4363 53.3221 35.7368 52.725 33.9372C52.1776 32.1375 51.0082 31.2377 49.2168 31.2377C47.077 31.2377 45.1114 32.4974 43.3199 35.0169C41.5285 37.485 40.16 40.673 39.2146 44.5808C38.3686 48.1801 38.2193 50.9053 38.7667 52.7564C39.3638 54.5561 40.5332 55.4559 42.2749 55.4559Z" fill="#FB9F36"/>
<path d="M2.14824 59.5429C1.35205 59.5429 0.804666 59.2858 0.506093 58.7716C0.207519 58.206 0.132876 57.589 0.282163 56.9205L13.4194 2.23671C13.6184 1.51685 13.8921 0.976954 14.2405 0.617022C14.6386 0.205674 15.3103 0 16.2558 0C17.2511 0 17.7985 0.33422 17.898 1.00266C17.9975 1.61969 17.9477 2.33955 17.7487 3.16225L4.8354 57.1519C4.68612 57.6147 4.43731 58.1289 4.08897 58.6945C3.7904 59.2601 3.14349 59.5429 2.14824 59.5429ZM2.29753 59.5429L3.93968 55.4551H26.7059C27.4026 55.4551 27.9499 55.5836 28.348 55.8407C28.7959 56.0978 29.0198 56.4835 29.0198 56.9977C29.0198 57.7689 28.7461 58.386 28.1988 58.8487C27.6514 59.3115 26.8801 59.5429 25.8848 59.5429H2.29753Z" fill="#FB9F36"/>
<path d="M361.734 63.1129C359.288 63.1129 357.355 62.3783 355.933 60.9092C354.511 59.4401 353.8 57.4422 353.8 54.9153V9.34361C354.426 9.22608 355.421 9.07918 356.786 8.90288C358.151 8.66782 359.459 8.55029 360.71 8.55029C362.018 8.55029 363.156 8.66782 364.122 8.90288C365.146 9.07918 365.999 9.43176 366.682 9.96064C367.364 10.4895 367.876 11.2241 368.217 12.1643C368.558 13.1045 368.729 14.3386 368.729 15.8664V50.6843H388.264C388.662 51.3307 389.032 52.2121 389.373 53.3287C389.714 54.3864 389.885 55.5029 389.885 56.6782C389.885 59.0288 389.402 60.7036 388.435 61.7026C387.468 62.6428 386.188 63.1129 384.596 63.1129H361.734Z" fill="#0087CA"/>
<path d="M347.226 43.1034C347.226 46.2767 346.686 49.1855 345.606 51.8299C344.582 54.4155 343.075 56.6486 341.084 58.529C339.094 60.3507 336.677 61.7611 333.833 62.7601C330.99 63.759 327.777 64.2585 324.194 64.2585C320.611 64.2585 317.398 63.759 314.554 62.7601C311.71 61.7611 309.293 60.3507 307.303 58.529C305.312 56.6486 303.777 54.4155 302.696 51.8299C301.673 49.1855 301.161 46.2767 301.161 43.1034V9.4315C301.786 9.31397 302.782 9.16706 304.147 8.99077C305.512 8.75571 306.82 8.63818 308.071 8.63818C309.379 8.63818 310.516 8.75571 311.483 8.99077C312.507 9.16706 313.36 9.51965 314.042 10.0485C314.725 10.5774 315.236 11.312 315.578 12.2522C315.919 13.1924 316.09 14.4265 316.09 15.9543V42.839C316.09 45.6597 316.829 47.8633 318.308 49.45C319.843 51.0366 321.805 51.8299 324.194 51.8299C326.639 51.8299 328.601 51.0366 330.08 49.45C331.558 47.8633 332.298 45.6597 332.298 42.839V9.4315C332.923 9.31397 333.919 9.16706 335.284 8.99077C336.648 8.75571 337.956 8.63818 339.208 8.63818C340.516 8.63818 341.653 8.75571 342.62 8.99077C343.644 9.16706 344.497 9.51965 345.179 10.0485C345.862 10.5774 346.373 11.312 346.715 12.2522C347.056 13.1924 347.226 14.4265 347.226 15.9543V43.1034Z" fill="#0087CA"/>
<path d="M243.141 36.0518C243.141 31.4682 243.824 27.4135 245.189 23.8876C246.61 20.3618 248.516 17.4236 250.904 15.073C253.35 12.6636 256.193 10.842 259.435 9.60791C262.733 8.37386 266.288 7.75684 270.098 7.75684C273.909 7.75684 277.435 8.37386 280.676 9.60791C283.975 10.842 286.847 12.6636 289.292 15.073C291.738 17.4236 293.643 20.3618 295.008 23.8876C296.43 27.4135 297.14 31.4682 297.14 36.0518C297.14 40.6354 296.458 44.7196 295.093 48.3042C293.728 51.83 291.823 54.7976 289.378 57.2069C286.989 59.5575 284.145 61.3498 280.847 62.5839C277.548 63.8179 273.965 64.435 270.098 64.435C266.231 64.435 262.648 63.8179 259.35 62.5839C256.051 61.2911 253.208 59.44 250.819 57.0307C248.43 54.6213 246.554 51.6537 245.189 48.1279C243.824 44.602 243.141 40.5767 243.141 36.0518ZM258.497 36.0518C258.497 41.3994 259.549 45.3953 261.653 48.0397C263.757 50.6841 266.572 52.0063 270.098 52.0063C273.681 52.0063 276.525 50.6841 278.629 48.0397C280.733 45.3953 281.785 41.3994 281.785 36.0518C281.785 30.763 280.733 26.7964 278.629 24.1521C276.582 21.5077 273.766 20.1855 270.184 20.1855C266.658 20.1855 263.814 21.5077 261.653 24.1521C259.549 26.7377 258.497 30.7043 258.497 36.0518Z" fill="#0087CA"/>
<path d="M203.73 17.6288C203.73 15.1019 204.441 13.1039 205.863 11.6348C207.285 10.1657 209.219 9.43115 211.664 9.43115H239.815C240.213 10.0776 240.554 10.9296 240.839 11.9874C241.18 13.0451 241.351 14.1617 241.351 15.337C241.351 17.57 240.867 19.1566 239.9 20.0969C238.991 21.0371 237.768 21.5072 236.232 21.5072H218.233V29.7048H237.427C237.825 30.3512 238.166 31.2033 238.45 32.2611C238.791 33.2601 238.962 34.3472 238.962 35.5225C238.962 37.7555 238.507 39.3421 237.597 40.2824C236.687 41.2226 235.465 41.6927 233.929 41.6927H218.233V50.9481H240.156C240.554 51.5945 240.896 52.4466 241.18 53.5043C241.521 54.5621 241.692 55.6786 241.692 56.8539C241.692 59.0869 241.209 60.703 240.242 61.702C239.332 62.6422 238.109 63.1123 236.574 63.1123H211.664C209.219 63.1123 207.285 62.3777 205.863 60.9086C204.441 59.4395 203.73 57.4415 203.73 54.9147V17.6288Z" fill="#0087CA"/>
<path d="M175.683 41.6055C173.181 40.7241 170.906 39.8426 168.859 38.9611C166.811 38.0209 165.048 36.9044 163.57 35.6116C162.091 34.3187 160.925 32.7909 160.072 31.0279C159.276 29.2063 158.878 27.0026 158.878 24.417C158.878 19.422 160.726 15.426 164.423 12.4291C168.176 9.43208 173.408 7.93359 180.119 7.93359C182.565 7.93359 184.84 8.10989 186.944 8.46247C189.048 8.81506 190.839 9.37332 192.318 10.1373C193.854 10.8424 195.048 11.7827 195.901 12.9579C196.754 14.0745 197.181 15.3967 197.181 16.9245C197.181 18.4524 196.839 19.7746 196.157 20.8911C195.474 21.9489 194.65 22.8597 193.683 23.6237C192.432 22.801 190.754 22.0958 188.65 21.5081C186.546 20.8617 184.242 20.5385 181.74 20.5385C179.181 20.5385 177.304 20.9205 176.11 21.6844C174.916 22.3896 174.318 23.3004 174.318 24.417C174.318 25.2984 174.688 26.033 175.427 26.6206C176.167 27.1495 177.276 27.649 178.754 28.1191L183.276 29.6176C188.622 31.3805 192.716 33.643 195.56 36.4049C198.46 39.108 199.91 42.8102 199.91 47.5113C199.91 52.5063 198.005 56.561 194.195 59.6755C190.385 62.7313 184.783 64.2591 177.389 64.2591C174.773 64.2591 172.328 64.0241 170.053 63.554C167.835 63.1426 165.873 62.5256 164.167 61.7029C162.518 60.8214 161.21 59.7637 160.243 58.5296C159.333 57.2368 158.878 55.7677 158.878 54.1223C158.878 52.4181 159.361 50.9784 160.328 49.8031C161.295 48.5691 162.347 47.6288 163.484 46.9824C165.077 48.2753 167.01 49.3918 169.285 50.332C171.617 51.2722 174.148 51.7423 176.878 51.7423C179.664 51.7423 181.626 51.3016 182.764 50.4202C183.901 49.5387 184.47 48.5103 184.47 47.335C184.47 46.1597 184.015 45.2783 183.105 44.6906C182.195 44.0442 180.915 43.4272 179.266 42.8396L175.683 41.6055Z" fill="#0087CA"/>
</svg>
